<?xml version="1.0" standalone="no"?>
<!DOCTYPE svg PUBLIC "-//W3C//DTD SVG 20010904//EN"
 "http://www.w3.org/TR/2001/REC-SVG-20010904/DTD/svg10.dtd">
<svg version="1.0" xmlns="http://www.w3.org/2000/svg"
 width="1088.000000pt" height="1088.000000pt" viewBox="0 0 1088.000000 1088.000000"
 preserveAspectRatio="xMidYMid meet">
<metadata>
Created by potrace 1.14, written by Peter Selinger 2001-2017
</metadata>
<g transform="translate(0.000000,1088.000000) scale(0.100000,-0.100000)"
fill="#000000" stroke="none">
<path d="M5218 10875 c-2 -2 -41 -6 -88 -10 -77 -6 -132 -12 -255 -30 -22 -3
-74 -12 -115 -20 -41 -8 -86 -17 -100 -19 -52 -10 -196 -47 -220 -56 -14 -5
-34 -11 -45 -13 -29 -4 -153 -46 -200 -66 -40 -18 -82 -31 -99 -30 -5 1 -12
-3 -15 -8 -3 -5 -28 -17 -56 -28 -50 -18 -227 -98 -255 -115 -8 -5 -41 -23
-73 -40 -32 -17 -72 -39 -90 -50 -17 -11 -49 -30 -71 -42 -105 -62 -227 -145
-331 -225 -5 -5 -30 -24 -55 -43 -25 -19 -47 -37 -50 -40 -3 -3 -41 -36 -85
-75 -128 -113 -308 -299 -390 -403 -11 -14 -32 -39 -46 -56 -14 -17 -50 -65
-80 -106 -29 -41 -56 -77 -59 -80 -3 -3 -10 -14 -17 -25 -7 -11 -48 -78 -91
-150 -86 -142 -192 -347 -192 -370 0 -8 -4 -15 -9 -15 -5 0 -11 -10 -14 -22
-3 -13 -19 -57 -37 -98 -17 -41 -33 -82 -35 -90 -2 -8 -9 -28 -16 -45 -6 -16
-13 -35 -15 -42 -1 -6 -14 -48 -28 -92 -14 -44 -27 -92 -28 -106 -1 -14 -5
-25 -9 -25 -3 0 -6 -6 -6 -12 -1 -7 -8 -45 -16 -83 -53 -239 -75 -424 -81
-680 -3 -89 -7 -129 -15 -128 -8 2 -11 -454 -11 -1707 0 -1361 3 -1710 13
-1711 56 -4 247 0 255 5 6 3 13 3 15 -1 6 -9 278 -9 301 0 8 3 17 3 20 -1 5
-8 278 -7 300 1 8 3 17 3 20 -1 4 -6 274 -8 301 -2 6 1 12 1 15 0 15 -6 260
-4 260 2 0 4 6 5 13 3 26 -10 113 -12 124 -3 7 5 14 5 17 0 3 -6 20 -7 41 -2
19 4 35 5 35 1 0 -3 56 -6 125 -6 69 0 125 3 125 7 0 4 6 5 13 3 26 -10 113
-12 124 -3 7 5 14 5 17 0 3 -6 20 -7 41 -2 19 4 35 5 35 1 0 -3 56 -6 125 -6
69 0 125 3 125 7 0 4 6 5 13 3 27 -10 117 -12 123 -4 3 5 10 6 16 3 14 -9 202
-9 216 0 6 3 13 3 15 -1 4 -7 273 -9 302 -3 6 1 12 1 15 0 16 -6 260 -4 260 3
0 5 5 5 11 1 14 -8 142 -9 156 -1 6 4 13 4 17 0 8 -9 66 -10 66 -1 0 4 8 4 17
1 19 -7 29 -7 168 1 104 6 199 15 235 21 14 2 49 7 79 10 54 7 74 10 121 20
14 3 39 7 55 10 34 5 70 13 70 15 0 1 11 3 25 5 14 2 54 11 90 20 36 10 70 18
75 19 6 1 37 10 70 20 33 10 65 19 70 21 6 1 17 5 25 8 8 3 51 18 95 33 116
39 156 54 190 69 17 7 57 26 90 40 33 15 88 40 122 57 34 16 65 29 69 28 4 -1
10 2 13 7 6 8 105 66 176 101 17 9 32 18 35 22 3 4 24 17 48 30 23 13 42 28
42 32 0 5 4 7 9 3 5 -3 12 -1 15 4 4 5 41 33 84 62 149 102 319 245 477 404
291 291 505 589 672 935 85 176 174 399 188 473 2 9 6 21 9 25 6 10 55 195 62
232 2 14 7 36 11 50 3 14 7 27 8 30 0 3 4 27 9 53 4 27 9 59 12 70 2 12 7 42
10 67 3 25 8 53 10 64 25 134 25 727 -1 826 -2 8 -6 38 -10 65 -6 52 -11 83
-20 125 -3 14 -8 41 -11 60 -15 90 -74 310 -115 426 -35 99 -104 275 -118 302
-6 9 -32 62 -59 117 -27 55 -60 118 -72 140 -13 22 -36 63 -52 90 -37 65 -52
89 -58 95 -3 3 -34 48 -69 100 -36 52 -67 97 -70 100 -4 3 -25 30 -48 61 -23
31 -47 62 -55 70 -7 8 -38 43 -68 79 -71 84 -257 269 -340 340 -36 30 -67 57
-70 60 -3 3 -25 21 -50 40 -25 19 -47 37 -50 40 -12 15 -250 179 -250 173 0
-3 -10 3 -22 14 -21 18 -48 35 -153 95 -16 10 -64 34 -105 55 -41 21 -76 41
-78 46 -2 4 -9 7 -15 7 -7 0 -39 13 -72 29 -70 34 -220 96 -285 117 -25 8 -54
19 -65 24 -20 9 -195 62 -250 76 -16 4 -34 8 -40 10 -95 24 -220 50 -335 68
-14 3 -25 5 -25 6 0 1 -27 5 -120 15 -33 3 -78 8 -100 11 -48 5 -572 13 -577
9z"/>
<path d="M1876 3018 c-10 -6 -13 -175 -11 -850 1 -464 5 -854 8 -868 4 -13 9
-42 13 -65 7 -52 46 -194 74 -269 42 -115 159 -320 219 -383 12 -13 19 -23 15
-23 -9 0 184 -189 230 -225 21 -16 47 -34 57 -39 11 -5 19 -13 19 -18 0 -4 7
-8 15 -8 8 0 15 -4 15 -9 0 -5 8 -12 18 -15 9 -4 35 -17 57 -31 72 -43 237
-117 294 -131 118 -29 156 -38 221 -50 70 -13 332 -12 425 2 97 13 315 70 325
84 3 4 16 11 30 15 50 15 187 89 274 149 81 55 242 204 306 282 46 56 131 184
123 184 -4 0 -3 4 3 8 15 9 104 195 104 216 0 8 4 17 9 20 7 5 15 30 22 74 0
4 5 14 10 23 4 9 11 29 14 45 2 16 7 40 10 54 11 53 17 86 22 120 2 19 6 412
7 873 2 590 -1 837 -8 838 -62 5 -2911 2 -2920 -3z"/>
</g>
</svg>
