<?xml version="1.0" encoding="utf-8"?>
<!-- Generator: Adobe Illustrator 26.0.3, SVG Export Plug-In . SVG Version: 6.00 Build 0)  -->
<svg version="1.1" xmlns="http://www.w3.org/2000/svg" xmlns:xlink="http://www.w3.org/1999/xlink" x="0px" y="0px"
	viewBox="0 0 295.69 120.8" enable-background="new 0 0 295.69 120.8" xml:space="preserve">
	<g id="bgd-curve-4">
		<path fill="none" stroke="#00FFFF" stroke-width="13" stroke-miterlimit="10" d="M54.65,185.19c0,0,5.83-33.38-16.18-47.1
		c-22.02-13.72-23.73-34.16-19.76-47.33s4.21-22.52-11.89-41.62S6.64,12.89,17.39-5.04s6.85-69.39,70.78-77.18
		s93.56-23.39,144.23,14.81s80.48,69.94,69.48,99.68s-39.94,57.66-35.22,105.68s-2.58,66.79-39.86,72.61
		c-37.28,5.82-36.54-23.65-68.49,0.05s-47.61,22.92-59.27,10.06S44.51,223.4,54.65,185.19z" />
	</g>
	<g id="bgd-curve-3">
		<path fill="none" stroke="#00FFFF" stroke-width="13" stroke-miterlimit="10" d="M88.8,144.38c0,0,3.79-21.68-10.51-30.59
		S62.87,91.6,65.46,83.05s2.73-14.63-7.72-27.03s-0.11-23.55,6.87-35.19s4.45-45.07,45.97-50.13s60.76-15.19,93.68,9.62
		s52.27,45.42,45.12,64.74c-7.15,19.32-25.94,37.45-22.87,68.64c3.07,31.19-1.67,43.38-25.89,47.16s-23.73-15.36-44.48,0.03
		s-30.92,14.89-38.49,6.53S82.22,169.19,88.8,144.38z" />
	</g>
	<g id="bgd-curve-2">
	</g>
	<g id="bgd-curve-1">
		<path fill="none" stroke="#00FFFF" stroke-width="13" stroke-miterlimit="10" d="M120.17,106.87c0,0,1.91-10.93-5.3-15.42
		c-7.21-4.49-7.77-11.18-6.47-15.49c1.3-4.31,1.38-7.37-3.89-13.63c-5.27-6.25-0.06-11.87,3.46-17.74s2.24-22.72,23.17-25.27
		s30.63-7.66,47.22,4.85s26.35,22.9,22.74,32.63c-3.6,9.74-13.07,18.88-11.53,34.6s-0.84,21.87-13.05,23.77
		c-12.21,1.9-11.96-7.74-22.42,0.02s-15.59,7.5-19.4,3.29C130.89,114.27,116.86,119.38,120.17,106.87z" />
	</g>
</svg>